# xmcd
#
# Track frame offsets:
#	150
#	9212
#	17582
#	25707
#	43775
#	54695
#	62347
#	69382
#	79227
#	90032
#	98982
#	118730
#	133462
#	142672
#	150290
#	160112
#	169455
#	190735
#
# Disc length: 2699 seconds
#
# Revision: 1
# Processed by: cddbd v1.5.2PL0 Copyright (c) Steve Scherf et al.
# Submitted via: audiograbber 1.82.02
#
DISCID=d80a8912
DTITLE=Johnny Rebel - For Segregationists Only Vol 2
DYEAR=1900
DGENRE=
TTITLE0=The South´s Gonna Rise Again
TTITLE1=Stand Up and Be Counted
TTITLE2=Dixie
TTITLE3=Flight NAACP 105
TTITLE4=This Great Society
TTITLE5=We Don´t want Niggers in our Schools
TTITLE6=Nigger - Nigger
TTITLE7=NAACP Prayer
TTITLE8=Who Likes a Nigger
TTITLE9=Nigger Hatin´ Me
TTITLE10=Ship those Niggers Back
TTITLE11=We is Non Violent Niggers
TTITLE12=Marty and His Beatnik Band
TTITLE13=The South Shall Rise Again
TTITLE14=Segregation Wagon
TTITLE15=Move Them Niggers North
TTITLE16=The New Sheriff
TTITLE17=She Ran Off with a Nigger
EXTD=
EXTT0=
EXTT1=
EXTT2=
EXTT3=
EXTT4=
EXTT5=
EXTT6=
EXTT7=
EXTT8=
EXTT9=
EXTT10=
EXTT11=
EXTT12=
EXTT13=
EXTT14=
EXTT15=
EXTT16=
EXTT17=
PLAYORDER=
